<?xml version="1.0" standalone="no"?>
<!DOCTYPE svg PUBLIC "-//W3C//DTD SVG 20010904//EN"
 "http://www.w3.org/TR/2001/REC-SVG-20010904/DTD/svg10.dtd">
<svg version="1.0" xmlns="http://www.w3.org/2000/svg"
 width="200.000000pt" height="200.000000pt" viewBox="0 0 200.000000 200.000000"
 preserveAspectRatio="xMidYMid meet">
<metadata>
Created by potrace 1.11, written by Peter Selinger 2001-2013
</metadata>
<g transform="translate(0.000000,200.000000) scale(0.100000,-0.100000)"
fill="#000000" stroke="none">
<path d="M955 1891 c-16 -7 -243 -196 -265 -221 -3 -3 -50 -43 -105 -90 -55
-47 -102 -87 -105 -90 -3 -3 -66 -58 -141 -123 -75 -64 -141 -128 -146 -140
-15 -33 -4 -76 24 -94 14 -10 50 -18 82 -19 31 -1 59 -2 64 -3 4 -1 7 -143 7
-317 0 -340 1 -350 54 -385 30 -20 1104 -22 1145 -2 59 29 61 40 61 387 0 174
3 316 8 317 4 0 36 2 71 3 56 2 67 6 89 31 18 22 22 35 18 59 -6 30 -21 47
-134 147 l-52 46 0 138 c0 199 -19 224 -175 221 -95 -1 -137 -18 -151 -59 -6
-18 -30 1 -182 138 -65 59 -117 76 -167 56z m91 -83 c16 -13 43 -35 59 -49
135 -120 231 -199 240 -196 5 2 11 26 13 53 2 31 9 54 19 62 24 18 157 16 173
-2 7 -10 12 -61 12 -150 1 -152 7 -171 65 -220 94 -78 124 -109 112 -117 -7
-4 -44 -8 -83 -8 -52 0 -74 -5 -82 -16 -9 -11 -12 -113 -12 -346 0 -238 -3
-334 -11 -342 -8 -8 -59 -13 -138 -15 l-126 -2 6 47 c4 38 12 54 39 77 18 16
62 56 98 88 l65 58 2 221 c1 202 0 222 -17 239 -17 17 -54 18 -64 1 -4 -6 -11
-46 -21 -131 -15 -121 -15 -130 -1 -130 8 0 24 -11 35 -25 26 -34 19 -73 -22
-109 -17 -16 -55 -51 -84 -77 -49 -47 -73 -60 -73 -40 0 5 38 44 85 87 85 77
94 94 66 127 -17 22 -49 13 -90 -26 -20 -18 -67 -62 -106 -97 -99 -92 -99 -92
-102 -190 -1 -47 -2 -93 -2 -102 -1 -15 -12 -17 -83 -15 l-83 2 -1 86 c-1 48
-4 98 -7 111 -6 21 -183 197 -238 236 -27 19 -69 -1 -69 -32 0 -18 23 -45 85
-102 85 -78 97 -94 72 -94 -24 0 -187 163 -187 187 0 35 11 53 40 68 26 13 27
15 19 72 -4 32 -11 85 -14 118 -8 68 -28 99 -59 89 -12 -4 -24 -12 -28 -18 -4
-6 -8 -111 -8 -233 l0 -222 83 -73 c104 -91 117 -109 121 -157 l3 -39 -134 -1
c-76 -1 -143 3 -154 9 -18 10 -19 25 -19 341 0 209 -4 337 -10 350 -9 16 -22
19 -90 19 -43 0 -81 4 -84 9 -6 9 19 33 174 166 103 88 140 120 185 160 12 11
49 43 81 71 32 28 92 80 133 115 166 144 168 145 217 107z"/>
<path d="M942 1420 c-43 -18 -60 -101 -30 -138 23 -27 62 -39 95 -30 77 20 91
128 22 163 -32 17 -54 18 -87 5z"/>
<path d="M1096 1341 c-4 -5 -2 -12 4 -16 5 -3 9 -20 8 -38 -2 -60 23 -84 82
-78 27 4 52 43 46 73 -3 15 -1 30 4 33 25 16 5 24 -52 21 -35 -2 -68 1 -75 6
-7 5 -14 5 -17 -1z"/>
<path d="M770 1325 c-11 -13 -5 -15 41 -15 50 1 52 2 35 15 -25 19 -60 19 -76
0z"/>
<path d="M747 1280 c-6 -23 19 -56 49 -64 29 -9 74 28 74 60 0 23 -3 24 -59
24 -50 0 -59 -3 -64 -20z"/>
<path d="M896 1211 c-31 -32 -37 -81 -14 -109 11 -12 15 -41 14 -105 -1 -49 2
-90 5 -92 3 -2 18 -6 33 -9 21 -4 29 0 38 20 13 29 28 32 28 5 0 -13 9 -20 30
-23 17 -3 33 -1 36 3 3 5 5 46 5 91 0 65 5 90 20 115 24 38 19 65 -19 105 -18
19 -32 26 -47 22 -42 -10 -60 -11 -81 -3 -17 6 -28 1 -48 -20z"/>
<path d="M736 1195 c-29 -27 -32 -48 -13 -88 11 -25 16 -27 75 -27 35 0 62 3
60 8 -2 4 -10 19 -17 35 -12 22 -12 32 -2 55 14 29 12 39 -4 33 -21 -8 -50 -8
-61 0 -7 6 -21 0 -38 -16z"/>
<path d="M1134 1168 c8 -23 6 -32 -10 -55 -16 -22 -21 -44 -22 -95 l0 -66 83
-1 c46 0 86 3 89 8 3 5 -3 34 -13 64 -17 48 -17 58 -6 74 19 25 18 47 -3 73
-15 18 -29 23 -73 24 l-56 1 11 -27z"/>
<path d="M733 1054 c-2 -7 -3 -23 -1 -36 4 -31 60 -34 70 -3 6 20 6 19 13 -2
4 -14 15 -23 27 -23 16 0 19 6 16 37 l-3 38 -59 0 c-37 1 -60 -4 -63 -11z"/>
<path d="M746 935 c-4 -11 1 -15 19 -15 18 0 23 4 19 15 -4 8 -12 15 -19 15
-7 0 -15 -7 -19 -15z"/>
<path d="M827 944 c-13 -13 -7 -24 14 -24 11 0 19 5 17 12 -5 14 -22 21 -31
12z"/>
<path d="M1117 925 c-5 -11 0 -15 19 -15 16 0 24 5 22 13 -7 18 -35 20 -41 2z"/>
<path d="M1190 926 c0 -10 9 -16 21 -16 24 0 21 23 -4 28 -10 2 -17 -3 -17
-12z"/>
<path d="M1014 873 c-15 -16 -15 -17 6 -25 25 -9 40 -3 40 17 0 21 -28 26 -46
8z"/>
<path d="M915 870 c-10 -16 4 -29 27 -25 26 5 32 11 23 24 -8 14 -42 14 -50 1z"/>
<path d="M1497 354 c-4 -4 -7 -17 -7 -29 0 -13 -8 -29 -17 -36 -14 -12 -16
-12 -9 1 4 8 0 6 -9 -5 -15 -19 -15 -20 9 -23 25 -3 25 -5 22 -67 -4 -69 3
-83 44 -87 30 -4 36 15 8 27 -18 8 -22 19 -25 62 -2 44 1 53 17 58 11 4 23 4
28 1 4 -2 9 4 9 15 1 14 -5 19 -23 19 -23 0 -25 4 -22 32 3 30 -10 46 -25 32z"/>
<path d="M791 331 c-17 -11 -16 -22 1 -32 10 -6 14 -32 13 -103 l-1 -96 35 6
c62 10 71 15 85 42 27 52 -6 112 -61 112 -13 0 -24 5 -24 10 -1 6 -2 19 -3 31
-1 24 -27 41 -45 30z m113 -118 c23 -45 -14 -91 -62 -75 -19 6 -15 79 6 91 28
17 40 13 56 -16z"/>
<path d="M975 320 c-4 -7 -3 -16 3 -22 14 -14 45 -2 40 15 -6 16 -34 21 -43 7z"/>
<path d="M1135 318 c-2 -7 -6 -49 -8 -93 -3 -44 -8 -87 -11 -96 -8 -17 19 -35
29 -20 2 5 6 41 7 80 1 52 6 72 17 76 9 3 12 3 8 -1 -3 -4 6 -32 22 -63 16
-31 31 -64 35 -73 3 -10 13 -18 22 -18 14 0 15 12 10 100 -4 65 -3 100 4 100
5 0 10 5 10 10 0 6 -11 10 -24 10 -14 0 -28 -4 -31 -10 -3 -5 -2 -10 3 -10 5
0 10 -26 10 -57 l2 -58 -42 68 c-43 67 -55 78 -63 55z"/>
<path d="M446 311 c-4 -5 -2 -12 4 -16 5 -3 10 0 10 7 0 10 2 10 8 0 14 -21 3
-156 -14 -168 -23 -18 -17 -24 26 -24 40 0 53 13 25 24 -16 6 -19 47 -6 81 7
18 10 17 30 -15 11 -19 22 -41 22 -47 1 -7 2 -19 3 -25 1 -17 66 -24 66 -8 0
7 -9 14 -20 17 -12 3 -32 27 -46 56 l-26 50 24 21 c12 12 31 25 41 29 24 9 21
22 -5 24 -13 1 -34 -12 -55 -35 l-35 -37 4 35 c3 31 0 35 -24 38 -14 2 -29 -1
-32 -7z"/>
<path d="M647 265 c-10 -7 -17 -21 -15 -30 3 -15 6 -14 27 4 30 26 33 26 56 1
14 -16 15 -20 4 -21 -8 -1 -18 -2 -24 -4 -5 -1 -17 -3 -26 -3 -24 -3 -43 -55
-30 -81 10 -18 20 -20 76 -19 44 2 65 6 65 15 0 6 -4 14 -8 17 -5 3 -9 21 -10
41 -1 37 -17 75 -36 87 -18 12 -59 9 -79 -7z m89 -98 c3 -21 -30 -40 -56 -32
-20 6 -27 35 -13 49 14 14 66 1 69 -17z"/>
<path d="M954 259 c-5 -8 -1 -11 12 -7 17 4 20 1 16 -25 -4 -23 -2 -28 9 -22
11 6 12 5 2 -6 -7 -7 -13 -21 -13 -30 0 -9 -7 -19 -15 -23 -8 -3 -15 -12 -15
-21 0 -11 11 -15 40 -15 33 0 40 3 40 20 0 11 -5 20 -11 20 -6 0 -9 22 -7 58
3 55 2 57 -24 60 -14 2 -29 -2 -34 -9z"/>
<path d="M1330 257 c0 -5 -3 -7 -7 -4 -13 13 -35 -36 -35 -76 1 -70 44 -90
126 -58 28 11 29 13 12 29 -17 16 -19 16 -33 -6 -20 -29 -56 -28 -73 2 -21 41
-9 53 49 49 57 -5 65 7 33 47 -19 23 -72 36 -72 17z m48 -19 c21 -21 13 -29
-23 -25 -39 4 -47 17 -18 28 26 11 28 10 41 -3z"/>
<path d="M1057 144 c-3 -3 -3 -12 0 -20 4 -11 9 -12 19 -3 8 6 14 15 14 20 0
10 -24 12 -33 3z"/>
</g>
</svg>
