<?xml version="1.0" encoding="utf-8"?>
<!-- Generator: Adobe Illustrator 15.1.0, SVG Export Plug-In  -->
<!DOCTYPE svg PUBLIC "-//W3C//DTD SVG 1.1//EN" "http://www.w3.org/Graphics/SVG/1.1/DTD/svg11.dtd" [
	<!ENTITY ns_flows "http://ns.adobe.com/Flows/1.0/">
]>
<svg version="1.1"
	 xmlns="http://www.w3.org/2000/svg" xmlns:xlink="http://www.w3.org/1999/xlink" xmlns:a="http://ns.adobe.com/AdobeSVGViewerExtensions/3.0/"
	 x="0px" y="0px" width="250px" height="250px" viewBox="-2.387 -11.416 250 250" enable-background="new -2.387 -11.416 250 250"
	 xml:space="preserve">
<defs>
</defs>
<g>
	<defs>
		<path id="SVGID_3_" d="M172.902,85.14c-8.813,4.656-35.062,27.942-35.062,27.942c-2.005,2.004-2.657,10.724-1.531,17.722
			c0.517,3.205-0.409,6.467-2.642,8.823c-1.05,1.108-2.204,2.314-3.434,3.582c-0.727,0.751-0.701,1.952,0.067,2.661
			c0.791,0.73,1.775,1.637,2.548,2.349c0.725,0.668,1.844,0.652,2.553-0.035c1.23-1.192,2.405-2.318,3.483-3.34
			c2.357-2.234,5.619-3.157,8.826-2.642c6.996,1.128,15.715,0.476,17.72-1.529c0,0,23.285-26.248,27.943-35.062
			c0.376-0.713-0.547-1.393-1.115-0.822l-29.971,29.97c-1.69,1.689-4.038,2.085-5.242,0.882c-1.204-1.205-0.81-3.552,0.88-5.24
			c0,0,14.337-14.505,22.831-23.939c2.08-2.311,4.296-5.037,5.88-7.036c0.35-0.445-0.22-1.024-0.667-0.677
			c-2.019,1.545-4.764,3.727-7.087,5.841c-9.389,8.542-23.683,23.085-23.683,23.085c-1.688,1.688-4.038,2.083-5.241,0.879v-0.001
			c-1.205-1.203-0.811-3.552,0.879-5.24c0,0,14.545-14.294,23.085-23.683c2.113-2.324,4.297-5.069,5.843-7.085
			c0.345-0.449-0.232-1.019-0.677-0.667c-2.001,1.581-4.729,3.798-7.038,5.876c-9.435,8.495-23.938,22.831-23.938,22.831
			c-1.689,1.69-4.038,2.087-5.242,0.881c-1.204-1.204-0.809-3.551,0.881-5.24l29.97-29.969c0.479-0.478,0.08-1.205-0.482-1.205
			C173.132,85.051,173.018,85.079,172.902,85.14"/>
	</defs>
	<use xlink:href="#SVGID_3_"  overflow="visible" fill="#7B2D26"/>
	<clipPath id="SVGID_4_">
		<use xlink:href="#SVGID_3_"  overflow="visible"/>
	</clipPath>
	<rect x="129.508" y="85.051" clip-path="url(#SVGID_4_)" fill="#7B2D26" width="64.243" height="63.836"/>
</g>
<g>
	<defs>
		<path id="SVGID_2_" d="M181.819,202.627c-0.015-0.016-0.031-0.031-0.045-0.049c-1.449-1.624-3.011-3.148-4.563-4.673
			c-3.146-3.012-6.404-5.903-9.698-8.797l-9.921-8.665c-1.684-1.435-3.345-2.89-5.024-4.331c-0.87-0.75,0.062-2.128,1.073-1.588
			c1.996,1.063,3.918,2.262,5.798,3.482c3.744,2.464,7.296,5.194,10.667,8.147c3.358,2.953,6.579,6.132,9.38,9.69
			c1.416,1.764,2.716,3.634,3.856,5.606c0.012,0.022,0.023,0.044,0.038,0.068c0.397,0.729-0.206,1.431-0.861,1.431
			C182.275,202.951,182.027,202.855,181.819,202.627 M76.815,94.602l0.043-0.026c1.45-0.778,3.051-1.294,4.682-1.518
			c3.262-0.434,6.571,0.019,9.606,1.049c3.056,1.005,5.852,2.606,8.333,4.532c1.246,1.002,2.42,2.092,3.48,3.276
			c0.727,0.812-0.257,2.016-1.204,1.476c-1.326-0.751-2.632-1.48-3.959-2.156c-2.603-1.319-5.215-2.513-7.9-3.399
			c-2.673-0.914-5.419-1.527-8.196-1.7c-1.399-0.073-2.804-0.023-4.204,0.243c-0.071,0.013-0.139,0.019-0.204,0.019
			C76.359,96.398,75.93,95.104,76.815,94.602 M69.649,94.221c-0.272,0.273-0.493,0.579-0.738,0.869
			c-0.291,0.246-0.597,0.468-0.87,0.738c-8.824,8.742-5.388,26.522,7.671,39.714c9.937,10.033,20.089,12.009,28.264,8.542
			c3.68-1.56,7.928-0.724,10.826,2.029c2.083,1.979,4.476,4.291,6.96,6.767l13.937,15.259c1.083,1.381,2.073,2.694,2.935,3.959
			l0.24,0.316l0.031,0.086c0.83,1.232,1.571,2.413,2.108,3.485c3.422,6.857,14.048,20.384,22.313,28.742
			c10.123,10.214,19.608,16.241,25.326,10.588c0.082-0.084,0.132-0.187,0.211-0.273c0.088-0.08,0.191-0.128,0.273-0.213
			c5.653-5.715-0.374-15.201-10.588-25.325c-8.359-8.265-21.886-18.89-28.742-22.312c-1.073-0.539-2.253-1.28-3.483-2.11
			l-0.09-0.032l-0.313-0.236c-1.266-0.864-2.578-1.854-3.961-2.937l-15.259-13.937c-2.475-2.484-4.786-4.876-6.767-6.958
			c-2.753-2.899-3.587-7.146-2.027-10.829c3.464-8.171,1.488-18.325-8.543-28.261c-8.246-8.162-18.282-12.565-26.785-12.566
			C77.476,89.327,72.928,90.913,69.649,94.221"/>
	</defs>
	<use xlink:href="#SVGID_2_"  overflow="visible" fill="#7B2D26"/>
	<clipPath id="SVGID_5_">
		<use xlink:href="#SVGID_2_"  overflow="visible"/>
	</clipPath>
	<rect x="59.217" y="89.327" clip-path="url(#SVGID_5_)" fill="#7B2D26" width="135.573" height="131.643"/>
</g>
<g>
	<defs>
		<path id="SVGID_1_" d="M68.106,201.52c0.012-0.024,0.024-0.046,0.038-0.068c1.138-1.973,2.44-3.843,3.856-5.606
			c2.799-3.559,6.021-6.737,9.381-9.69c3.369-2.953,6.92-5.684,10.666-8.147c1.88-1.221,3.801-2.42,5.796-3.482
			c1.012-0.54,1.945,0.838,1.074,1.588c-1.683,1.441-3.341,2.896-5.023,4.331l-9.921,8.665c-3.296,2.894-6.551,5.785-9.699,8.797
			c-1.554,1.524-3.117,3.049-4.563,4.673c-0.016,0.018-0.03,0.033-0.044,0.049c-0.208,0.228-0.458,0.323-0.701,0.323
			C68.312,202.951,67.707,202.25,68.106,201.52 M116.693,155.984l-5.765,5.268c-1.399,1.096-2.726,2.097-4.007,2.969l-0.32,0.241
			l-0.087,0.033c-1.246,0.839-2.44,1.59-3.527,2.133c-6.937,3.463-20.622,14.215-29.079,22.574
			c-10.335,10.244-16.433,19.843-10.714,25.626c0.085,0.085,0.188,0.134,0.277,0.213c0.082,0.089,0.129,0.193,0.215,0.278
			c5.782,5.72,15.381-0.379,25.624-10.715c8.361-8.456,19.112-22.141,22.577-29.078c0.542-1.087,1.292-2.281,2.132-3.526
			l0.033-0.089l0.242-0.318c0.872-1.281,1.872-2.608,2.969-4.007l5.149-5.638c0.65-0.714,0.65-1.805-0.006-2.514
			c-0.905-0.981-2.167-2.343-3.102-3.35c-0.365-0.393-0.858-0.588-1.354-0.588C117.502,155.497,117.051,155.658,116.693,155.984"/>
	</defs>
	<use xlink:href="#SVGID_1_"  overflow="visible" fill="#7B2D26"/>
	<clipPath id="SVGID_6_">
		<use xlink:href="#SVGID_1_"  overflow="visible"/>
	</clipPath>
	<rect x="57.476" y="155.497" clip-path="url(#SVGID_6_)" fill="#7B2D26" width="65.586" height="65.542"/>
</g>
<rect y="78.975" fill="#0A7A76" width="31.596" height="144.613"/>
<rect x="213.881" y="76.545" fill="#0A7A76" width="31.596" height="144.613"/>
<rect x="159.927" y="-20.653" transform="matrix(0.5278 -0.8494 0.8494 0.5278 39.1087 173.6511)" fill="#0A7A76" width="31.595" height="144.613"/>
<rect x="54.167" y="-19.863" transform="matrix(0.5417 0.8406 -0.8406 0.5417 76.1459 -34.7752)" fill="#0A7A76" width="31.594" height="144.614"/>
</svg>
