<?xml version="1.0" encoding="utf-8"?>
<!-- Generator: Adobe Illustrator 20.1.0, SVG Export Plug-In . SVG Version: 6.00 Build 0)  -->
<svg version="1.1" id="Layer_1" xmlns="http://www.w3.org/2000/svg" xmlns:xlink="http://www.w3.org/1999/xlink" x="0px" y="0px"
	 viewBox="0 0 211 361" style="enable-background:new 0 0 211 361;" xml:space="preserve">
<style type="text/css">
	.st0{fill:#FFFFFF;}
	.st1{fill:#D7C9AA;}
</style>
<g>
	<g>
		<rect class="st0" width="211" height="361"/>
	</g>
</g>
<g>
	<path class="st1" d="M-69.5,132.3c12,0,23.4,4.4,33.6,10.3c10.1,5.9,19.8,14.2,24.3,25.4c10.3,25.6-6,50-12.5,74.1
		c-3.5,13.2,6.9,21.6,16,29.2c9.2,7.7,18.8,15.1,27.1,23.8c8,8.3,16.1,19.4,17,31.2c0.9,12.2-8.2,21.8-17.9,27.7
		c-4.7,2.9-9.8,5.1-14.9,7.2c-38.4,10.6-80.5,4.4-115-15.6c-19.3-11.2-36.6-27.1-48.1-46.3c-13.2-22.1-15.2-48.8-8.7-73.4
		c6.1-23.1,19.7-43.7,36.1-60.9C-116.1,148-94.1,132.4-69.5,132.3z"/>
	<ellipse transform="matrix(0.9753 -0.2207 0.2207 0.9753 -74.4587 20.1623)" class="st1" cx="53" cy="343.3" rx="15.1" ry="15.5"/>
	<path class="st1" d="M67.6,399.4c-1.1-14.3,3.2-28.3,9.4-41c6.2-12.6,15.2-24.9,28.1-31.2c29.7-14.5,60.2,2.8,89.5,8.4
		c16.1,3.1,25.1-10.1,33.5-21.6c8.4-11.6,16.4-23.7,26-34.4c9.2-10.2,21.7-20.9,35.8-23c14.4-2.2,26.8,7.9,34.6,19
		c3.8,5.4,6.9,11.2,9.8,17.1c16,44.9,12.3,95.7-8.5,138.6c-11.6,24-29.1,46-51,61.4c-25.2,17.7-56.9,22.4-86.8,16.8
		c-28.1-5.3-53.9-19.7-75.8-37.7C90.3,453.6,69.8,428.7,67.6,399.4z"/>
</g>
<ellipse transform="matrix(0.9753 -0.2207 0.2207 0.9753 -70.1413 26.4057)" class="st1" cx="83.1" cy="327.1" rx="6" ry="6.1"/>
<ellipse transform="matrix(0.9753 -0.2207 0.2207 0.9753 -64.6549 50.7077)" class="st1" cx="194.6" cy="314.7" rx="6" ry="6.1"/>
<path class="st1" d="M299.3-33.5c-2,19.8-11.1,37.9-22.6,53.9C265.3,36.2,250,50.8,231,56.3C187.2,68.9,149.9,37.8,111.5,23
	c-21.1-8.1-36.6,7.7-50.6,21.4C46.5,58.2,32.8,72.9,17.2,85.2c-15,11.8-34.5,23.4-54.1,22.9c-20.1-0.5-34.4-17.4-42.4-34.4
	c-3.9-8.3-6.6-17-9.2-25.8c-10.9-65.4,6.5-134.1,45-187.7C-22-170,7-195.9,40.5-211.6c38.5-18.1,82.6-16.8,121.9-1.8
	c36.9,14.1,68.4,40.1,93.7,70.1C281.5-113.3,303.3-74.3,299.3-33.5z"/>
<path class="st1" d="M390.8,88.6c3.1,10.3,2.3,21.3-0.2,31.7c-2.4,10.3-7.1,20.8-15.5,27.6c-19.3,15.5-44.4,7.8-66.7,8.4
	c-12.2,0.4-16.7,11.6-20.9,21.4c-4.3,9.9-8.1,20.1-13.4,29.6c-5.1,9-12.4,18.9-22.4,22.8c-10.2,4-20.8-1.5-28.3-8.3
	c-3.7-3.3-6.8-7.1-9.9-11c-18.9-30.5-24.4-68.5-16.2-103.4c4.6-19.6,13.8-38.6,27.3-53.6c15.5-17.1,37.9-25.8,60.6-26.5
	c21.4-0.7,42.5,5.7,61.4,15.4C365.4,52.4,384.4,67.4,390.8,88.6z"/>
</svg>
